<svg xmlns="http://www.w3.org/2000/svg" viewBox="0 0 48 48" fill="none">
  <rect width="48" height="48" rx="12" fill="#00C4CC"/>
  <g transform="translate(8,8) scale(1.3333)">
    <path d="M12 0C5.373 0 0 5.373 0 12s5.373 12 12 12 12-5.373 12-12S18.627 0 12 0zm4.8 14.4c-.48 1.92-2.16 3.36-4.32 3.36-2.64 0-4.8-2.16-4.8-4.8s2.16-4.8 4.8-4.8c2.16 0 3.84 1.44 4.32 3.36h-2.4c-.36-.72-1.08-1.2-1.92-1.2-1.2 0-2.16.96-2.16 2.16s.96 2.16 2.16 2.16c.84 0 1.56-.48 1.92-1.2H16.8z" fill="#FFF"/>
  </g>
</svg>
