<svg xmlns="http://www.w3.org/2000/svg" viewBox="0 0 48 48" fill="none">
  <rect width="48" height="48" rx="12" fill="#000000"/>
  <g transform="translate(8,8) scale(1.3333)">
    <path d="M24 8.182l-.018-.012a.648.648 0 0 0-.078-.042l-11.972-7.737a1.044 1.044 0 0 0-1.075 0L.933 8.128A1.028 1.028 0 0 0 .436 9.02v5.933c0 .33.175.638.462.808l11.97 7.738a1.04 1.04 0 0 0 1.076 0l11.97-7.738a.932.932 0 0 0 .461-.808V9.02a.936.936 0 0 0-.375-.838zM12 19.109l-4.908-3.175 4.908-3.347 4.908 3.347zm-1.054-7.606L6.09 14.613V9.354zm1.054-3.008L6.17 11.973l-3.894-2.517L12 3.833zm1.054 3.008v5.259L8.11 14.613zm3.988 3.512l-4.908 3.175v-6.522l4.908-3.347zm1.966-1.266V9.354l4.907 3.171zM14.054 8.495L20 11.973l-5.946 3.478z" fill="#FFF"/>
  </g>
</svg>
